{"accessors":{"accessor_0":{"bufferView":"bufferView_0","byteOffset":0,"byteStride":0,"componentType":5126,"count":20262,"min":[-1.5695610046386719,0,-1.4089959859848022],"max":[1.3621289730072021,3.5887699127197266,1.3919509649276733],"type":"VEC3"},"accessor_1":{"bufferView":"bufferView_0","byteOffset":243144,"byteStride":0,"componentType":5126,"count":20262,"min":[-0.9999529719352722,-0.9995719790458679,-0.9984300136566162],"max":[0.9999529719352722,0.9978020191192627,0.9990990161895752],"type":"VEC3"},"accessor_2":{"bufferView":"bufferView_0","byteOffset":486288,"byteStride":0,"componentType":5126,"count":20262,"min":[0.2234099954366684,-107.77393341064453],"max":[3.22340989112854,0.07760000228881836],"type":"VEC2"},"accessor_3":{"bufferView":"bufferView_1","byteOffset":0,"byteStride":0,"componentType":5123,"count":20262,"min":[0],"max":[20261],"type":"SCALAR"},"accessor_4":{"bufferView":"bufferView_0","byteOffset":648384,"byteStride":0,"componentType":5126,"count":20910,"min":[-1.8449180126190186,1.4947999715805054,-1.8419129848480225],"max":[1.7888920307159424,3.821959972381592,1.7033220529556274],"type":"VEC3"},"accessor_5":{"bufferView":"bufferView_0","byteOffset":899304,"byteStride":0,"componentType":5126,"count":20910,"min":[-0.9999589920043945,-0.9999759793281555,-0.9964039921760559],"max":[0.9968649744987488,0.9999099969863892,0.9939680099487305],"type":"VEC3"},"accessor_6":{"bufferView":"bufferView_0","byteOffset":1150224,"byteStride":0,"componentType":5126,"count":20910,"min":[-0.007439999841153622,-0.001069999998435378],"max":[0.9989299774169922,1.000599980354309],"type":"VEC2"},"accessor_7":{"bufferView":"bufferView_1","byteOffset":40524,"byteStride":0,"componentType":5123,"count":20910,"min":[0],"max":[20909],"type":"SCALAR"}},"asset":{"generator":"obj2gltf","profile":{"api":"WebGL","version":"1.0"},"version":"1.0","premultipliedAlpha":true},"buffers":{"buffer":{"byteLength":1399848,"uri":"data:application/octet-stream;base64,","type":"arraybuffer"}},"bufferViews":{"bufferView_0":{"buffer":"buffer","byteLength":1317504,"byteOffset":0,"target":34962},"bufferView_1":{"buffer":"buffer","byteLength":82344,"byteOffset":1317504,"target":34963}},"extensionsUsed":[],"images":{"DB2X2_L01_Spec":{"name":"DB2X2_L01_Spec","uri":"DB2X2_L01_Spec.png"},"DB2X2_L01":{"name":"DB2X2_L01","uri":"DB2X2_L01.png"},"bark_0021":{"name":"bark_0021","uri":"bark_0021.jpg"}},"materials":{"Trank_bark":{"technique":"technique0","values":{"ambient":[0,0,0,1],"diffuse":"texture_bark_0021","emission":[0,0,0,1],"specular":[0,0,0,1],"shininess":16,"transparency":1}},"polySurface1SG1":{"technique":"technique1","values":{"ambient":[0,0,0,1],"diffuse":"texture_DB2X2_L01","emission":[0,0,0,1],"specular":"texture_DB2X2_L01_Spec","shininess":5.89,"transparency":1}}},"meshes":{"Tree_polySurface1 g1 polySurface1_1":{"name":"Tree_polySurface1 g1 polySurface1_1","primitives":[{"attributes":{"POSITION":"accessor_0","NORMAL":"accessor_1","TEXCOORD_0":"accessor_2"},"indices":"accessor_3","material":"Trank_bark","mode":4}]},"Tree_polySurface1 g1 g2 polySurface1_1":{"name":"Tree_polySurface1 g1 g2 polySurface1_1","primitives":[{"attributes":{"POSITION":"accessor_4","NORMAL":"accessor_5","TEXCOORD_0":"accessor_6"},"indices":"accessor_7","material":"polySurface1SG1","mode":4}]}},"nodes":{"Tree_polySurface1 g1 polySurface1":{"name":"Tree_polySurface1 g1 polySurface1","meshes":["Tree_polySurface1 g1 polySurface1_1"],"children":[],"matrix":[1,0,0,0,0,1,0,0,0,0,1,0,0,0,0,1]},"Tree_polySurface1 g1 g2 polySurface1":{"name":"Tree_polySurface1 g1 g2 polySurface1","meshes":["Tree_polySurface1 g1 g2 polySurface1_1"],"children":[],"matrix":[1,0,0,0,0,1,0,0,0,0,1,0,0,0,0,1]}},"samplers":{"sampler":{"magFilter":9729,"minFilter":9729,"wrapS":10497,"wrapT":10497}},"scene":"scene","scenes":{"scene":{"nodes":["Tree_polySurface1 g1 polySurface1","Tree_polySurface1 g1 g2 polySurface1"]}},"textures":{"texture_DB2X2_L01_Spec":{"format":6408,"internalFormat":6408,"sampler":"sampler","source":"DB2X2_L01_Spec","target":3553,"type":5121},"texture_DB2X2_L01":{"format":6408,"internalFormat":6408,"sampler":"sampler","source":"DB2X2_L01","target":3553,"type":5121},"texture_bark_0021":{"format":6407,"internalFormat":6407,"sampler":"sampler","source":"bark_0021","target":3553,"type":5121}},"animations":{},"cameras":{},"programs":{"program0":{"attributes":["a_position","a_normal","a_texcoord_0"],"fragmentShader":"fragmentShader0","vertexShader":"vertexShader0"},"program1":{"attributes":["a_position","a_normal","a_texcoord_0"],"fragmentShader":"fragmentShader1","vertexShader":"vertexShader1"}},"shaders":{"vertexShader0":{"type":35633,"uri":"data:text/plain;base64,"},"fragmentShader0":{"type":35632,"uri":"data:text/plain;base64,"},"vertexShader1":{"type":35633,"uri":"data:text/plain;base64,"},"fragmentShader1":{"type":35632,"uri":"data:text/plain;base64,"}},"skins":{},"techniques":{"technique0":{"attributes":{"a_position":"position","a_normal":"normal","a_texcoord_0":"texcoord_0"},"parameters":{"modelViewMatrix":{"semantic":"MODELVIEW","type":35676},"projectionMatrix":{"semantic":"PROJECTION","type":35676},"normalMatrix":{"semantic":"MODELVIEWINVERSETRANSPOSE","type":35675},"ambient":{"type":35666},"diffuse":{"type":35678},"emission":{"type":35666},"specular":{"type":35666},"shininess":{"type":5126},"transparency":{"type":5126},"position":{"semantic":"POSITION","type":35665},"normal":{"semantic":"NORMAL","type":35665},"texcoord_0":{"semantic":"TEXCOORD_0","type":35664}},"program":"program0","states":{"enable":[2884,2929]},"uniforms":{"u_modelViewMatrix":"modelViewMatrix","u_projectionMatrix":"projectionMatrix","u_normalMatrix":"normalMatrix","u_ambient":"ambient","u_diffuse":"diffuse","u_emission":"emission","u_specular":"specular","u_shininess":"shininess","u_transparency":"transparency"}},"technique1":{"attributes":{"a_position":"position","a_normal":"normal","a_texcoord_0":"texcoord_0"},"parameters":{"modelViewMatrix":{"semantic":"MODELVIEW","type":35676},"projectionMatrix":{"semantic":"PROJECTION","type":35676},"normalMatrix":{"semantic":"MODELVIEWINVERSETRANSPOSE","type":35675},"ambient":{"type":35666},"diffuse":{"type":35678},"emission":{"type":35666},"specular":{"type":35678},"shininess":{"type":5126},"transparency":{"type":5126},"position":{"semantic":"POSITION","type":35665},"normal":{"semantic":"NORMAL","type":35665},"texcoord_0":{"semantic":"TEXCOORD_0","type":35664}},"program":"program1","states":{"enable":[2884,2929]},"uniforms":{"u_modelViewMatrix":"modelViewMatrix","u_projectionMatrix":"projectionMatrix","u_normalMatrix":"normalMatrix","u_ambient":"ambient","u_diffuse":"diffuse","u_emission":"emission","u_specular":"specular","u_shininess":"shininess","u_transparency":"transparency"}}}}
